<!--
  Owldoku — happy owl sprite (used for the win overlay).

  Fully self-contained: all gradients and filters this sprite needs are
  defined right here in its own <defs>. It does not rely on anything from
  the page that embeds it, so it can be swapped for a different file
  without checking what else that might affect.
-->
<svg viewBox="-4 -4 108 108" xmlns="http://www.w3.org/2000/svg">
  <defs>
    <radialGradient id="owlBodyGrad" cx="38%" cy="26%" r="78%">
      <stop offset="0%" stop-color="#fbe3ac"/>
      <stop offset="45%" stop-color="#eeb15c"/>
      <stop offset="100%" stop-color="#c97a2e"/>
    </radialGradient>
    <radialGradient id="owlFaceGrad" cx="50%" cy="34%" r="72%">
      <stop offset="0%" stop-color="#fff8ea"/>
      <stop offset="60%" stop-color="#f7d693"/>
      <stop offset="100%" stop-color="#eab55c"/>
    </radialGradient>
    <linearGradient id="owlWingGrad" x1="0" y1="0" x2="0" y2="1">
      <stop offset="0%" stop-color="#d9973f"/>
      <stop offset="100%" stop-color="#a8641f"/>
    </linearGradient>
    <linearGradient id="owlTuftGrad" x1="0" y1="0" x2="0" y2="1">
      <stop offset="0%" stop-color="#c68b3c"/>
      <stop offset="100%" stop-color="#8a5a22"/>
    </linearGradient>
    <linearGradient id="owlBeakGrad" x1="0" y1="0" x2="0" y2="1">
      <stop offset="0%" stop-color="#f6c877"/>
      <stop offset="100%" stop-color="#d17a3b"/>
    </linearGradient>
    <filter id="owlSoftShadow" x="-50%" y="-50%" width="200%" height="200%">
      <feGaussianBlur stdDeviation="1.6"/>
    </filter>
  </defs>
  <ellipse cx="50" cy="93" rx="24" ry="4.5" fill="#000" opacity="0.28" filter="url(#owlSoftShadow)"/>
  <ellipse cx="50" cy="52" rx="33" ry="38" fill="url(#owlBodyGrad)" stroke="#5c3a17" stroke-width="1.1"/>
  <path d="M27,54 C16,50 6,42 3,26 C2,20 4,16 8,20 C13,28 18,37 24,44 C26,48 27,51 27,54 Z" fill="url(#owlWingGrad)" stroke="#5c3a17" stroke-width="1"/>
  <path d="M21,40 Q14,30 9,20" stroke="#5c3a17" stroke-width="1" fill="none" opacity="0.4" stroke-linecap="round"/>
  <path d="M16,34 Q10,26 6,18" stroke="#5c3a17" stroke-width="1" fill="none" opacity="0.35" stroke-linecap="round"/>
  <path d="M73,54 C84,50 94,42 97,26 C98,20 96,16 92,20 C87,28 82,37 76,44 C74,48 73,51 73,54 Z" fill="url(#owlWingGrad)" stroke="#5c3a17" stroke-width="1"/>
  <path d="M79,40 Q86,30 91,20" stroke="#5c3a17" stroke-width="1" fill="none" opacity="0.4" stroke-linecap="round"/>
  <path d="M84,34 Q90,26 94,18" stroke="#5c3a17" stroke-width="1" fill="none" opacity="0.35" stroke-linecap="round"/>
  <path d="M14,24 C11,14 14,3 21,7 C25,12 23,20 20,27 Z" fill="url(#owlTuftGrad)" stroke="#4a2f14" stroke-width="0.8"/>
  <path d="M27,22 C25,13 28,5 34,10 C37,15 35,21 31,26 Z" fill="url(#owlTuftGrad)" stroke="#4a2f14" stroke-width="0.8"/>
  <path d="M86,24 C89,14 86,3 79,7 C75,12 77,20 80,27 Z" fill="url(#owlTuftGrad)" stroke="#4a2f14" stroke-width="0.8"/>
  <path d="M73,22 C75,13 72,5 66,10 C63,15 65,21 69,26 Z" fill="url(#owlTuftGrad)" stroke="#4a2f14" stroke-width="0.8"/>
  <ellipse cx="50" cy="46" rx="27" ry="26" fill="url(#owlFaceGrad)" stroke="#c98a3e" stroke-width="0.8" opacity="0.95"/>
  <circle cx="27" cy="58" r="4.3" fill="#ef8264" opacity="0.4"/>
  <circle cx="73" cy="58" r="4.3" fill="#ef8264" opacity="0.4"/>
  <path d="M28,48 Q37,38 46,48" stroke="#2a1c10" stroke-width="2.6" fill="none" stroke-linecap="round"/>
  <path d="M54,48 Q63,38 72,48" stroke="#2a1c10" stroke-width="2.6" fill="none" stroke-linecap="round"/>
  <path d="M50,55 C45,55 42,59 43,64 C43.5,67 46.5,69 50,69 C53.5,69 56.5,67 57,64 C58,59 55,55 50,55 Z" fill="url(#owlBeakGrad)" stroke="#8a4a1e" stroke-width="0.8"/>
  <path d="M38,76 Q50,70 62,76" stroke="#c98a3e" stroke-width="1.3" fill="none" opacity="0.45" stroke-linecap="round"/>
  <path d="M36,82 Q50,75 64,82" stroke="#c98a3e" stroke-width="1.3" fill="none" opacity="0.4" stroke-linecap="round"/>
  <path d="M12.0,10.8 L12.9,13.1 L15.2,14.0 L12.9,14.9 L12.0,17.2 L11.1,14.9 L8.8,14.0 L11.1,13.1 Z" fill="#f4d99a"/>
  <path d="M88.0,14.4 L88.7,16.3 L90.6,17.0 L88.7,17.7 L88.0,19.6 L87.3,17.7 L85.4,17.0 L87.3,16.3 Z" fill="#f4d99a"/>
  <path d="M50.0,0.6 L50.7,2.3 L52.4,3.0 L50.7,3.7 L50.0,5.4 L49.3,3.7 L47.6,3.0 L49.3,2.3 Z" fill="#f4d99a"/>
</svg>
