<!--
  Owldoku — default owl sprite (used for the "place owls" mode icon and
  grid clues).

  Fully self-contained: all gradients and filters this sprite needs are
  defined right here in its own <defs>. It does not rely on anything from
  the page that embeds it, so it can be swapped for a different file (any
  size, any style) without checking what else that might affect — nothing
  else references these def IDs.
-->
<svg viewBox="-4 -4 108 108" xmlns="http://www.w3.org/2000/svg">
  <defs>
    <radialGradient id="owlBodyGrad" cx="38%" cy="26%" r="78%">
      <stop offset="0%" stop-color="#fbe3ac"/>
      <stop offset="45%" stop-color="#eeb15c"/>
      <stop offset="100%" stop-color="#c97a2e"/>
    </radialGradient>
    <radialGradient id="owlFaceGrad" cx="50%" cy="34%" r="72%">
      <stop offset="0%" stop-color="#fff8ea"/>
      <stop offset="60%" stop-color="#f7d693"/>
      <stop offset="100%" stop-color="#eab55c"/>
    </radialGradient>
    <linearGradient id="owlWingGrad" x1="0" y1="0" x2="0" y2="1">
      <stop offset="0%" stop-color="#d9973f"/>
      <stop offset="100%" stop-color="#a8641f"/>
    </linearGradient>
    <linearGradient id="owlTuftGrad" x1="0" y1="0" x2="0" y2="1">
      <stop offset="0%" stop-color="#c68b3c"/>
      <stop offset="100%" stop-color="#8a5a22"/>
    </linearGradient>
    <linearGradient id="owlBeakGrad" x1="0" y1="0" x2="0" y2="1">
      <stop offset="0%" stop-color="#f6c877"/>
      <stop offset="100%" stop-color="#d17a3b"/>
    </linearGradient>
    <radialGradient id="owlIrisGrad" cx="35%" cy="30%" r="70%">
      <stop offset="0%" stop-color="#f0b25a"/>
      <stop offset="55%" stop-color="#b9722a"/>
      <stop offset="100%" stop-color="#6b3f1a"/>
    </radialGradient>
    <filter id="owlSoftShadow" x="-50%" y="-50%" width="200%" height="200%">
      <feGaussianBlur stdDeviation="1.6"/>
    </filter>
  </defs>
  <ellipse cx="50" cy="93" rx="24" ry="4.5" fill="#000" opacity="0.28" filter="url(#owlSoftShadow)"/>
  <path d="M22,40 C10,45 8,65 18,82 C22,84 26,80 26,65 C26,55 25,46 22,40 Z" fill="url(#owlWingGrad)" stroke="#5c3a17" stroke-width="1"/>
  <path d="M18,54 Q21,64 17,74" stroke="#5c3a17" stroke-width="1" fill="none" opacity="0.35" stroke-linecap="round"/>
  <path d="M22,58 Q24,66 21,76" stroke="#5c3a17" stroke-width="1" fill="none" opacity="0.3" stroke-linecap="round"/>
  <path d="M78,40 C90,45 92,65 82,82 C78,84 74,80 74,65 C74,55 75,46 78,40 Z" fill="url(#owlWingGrad)" stroke="#5c3a17" stroke-width="1"/>
  <path d="M82,54 Q79,64 83,74" stroke="#5c3a17" stroke-width="1" fill="none" opacity="0.35" stroke-linecap="round"/>
  <path d="M78,58 Q76,66 79,76" stroke="#5c3a17" stroke-width="1" fill="none" opacity="0.3" stroke-linecap="round"/>
  <ellipse cx="50" cy="52" rx="33" ry="38" fill="url(#owlBodyGrad)" stroke="#5c3a17" stroke-width="1.1"/>
  <path d="M14,24 C11,14 14,3 21,7 C25,12 23,20 20,27 Z" fill="url(#owlTuftGrad)" stroke="#4a2f14" stroke-width="0.8"/>
  <path d="M27,22 C25,13 28,5 34,10 C37,15 35,21 31,26 Z" fill="url(#owlTuftGrad)" stroke="#4a2f14" stroke-width="0.8"/>
  <path d="M86,24 C89,14 86,3 79,7 C75,12 77,20 80,27 Z" fill="url(#owlTuftGrad)" stroke="#4a2f14" stroke-width="0.8"/>
  <path d="M73,22 C75,13 72,5 66,10 C63,15 65,21 69,26 Z" fill="url(#owlTuftGrad)" stroke="#4a2f14" stroke-width="0.8"/>
  <ellipse cx="50" cy="46" rx="27" ry="26" fill="url(#owlFaceGrad)" stroke="#c98a3e" stroke-width="0.8" opacity="0.95"/>
  <circle cx="37" cy="47" r="13.5" fill="none" stroke="#2a1c10" stroke-width="1.1" opacity="0.4"/>
  <circle cx="37" cy="47" r="12" fill="#fffdf6"/>
  <circle cx="37" cy="47" r="8.3" fill="url(#owlIrisGrad)"/>
  <circle cx="37" cy="47" r="4.4" fill="#1c130a"/>
  <circle cx="34.3" cy="43.8" r="1.7" fill="#fff"/>
  <circle cx="39.5" cy="50" r="0.8" fill="#fff" opacity="0.6"/>
  <circle cx="63" cy="47" r="13.5" fill="none" stroke="#2a1c10" stroke-width="1.1" opacity="0.4"/>
  <circle cx="63" cy="47" r="12" fill="#fffdf6"/>
  <circle cx="63" cy="47" r="8.3" fill="url(#owlIrisGrad)"/>
  <circle cx="63" cy="47" r="4.4" fill="#1c130a"/>
  <circle cx="60.3" cy="43.8" r="1.7" fill="#fff"/>
  <circle cx="65.5" cy="50" r="0.8" fill="#fff" opacity="0.6"/>
  <path d="M50,55 C45,55 42,59 43,64 C43.5,67 46.5,69 50,69 C53.5,69 56.5,67 57,64 C58,59 55,55 50,55 Z" fill="url(#owlBeakGrad)" stroke="#8a4a1e" stroke-width="0.8"/>
  <path d="M50,57.5 L50,62.5" stroke="#8a4a1e" stroke-width="0.6" opacity="0.4" stroke-linecap="round"/>
  <path d="M38,76 Q50,70 62,76" stroke="#c98a3e" stroke-width="1.3" fill="none" opacity="0.45" stroke-linecap="round"/>
  <path d="M36,82 Q50,75 64,82" stroke="#c98a3e" stroke-width="1.3" fill="none" opacity="0.4" stroke-linecap="round"/>
  <path d="M38,87 Q50,81 62,87" stroke="#c98a3e" stroke-width="1.2" fill="none" opacity="0.35" stroke-linecap="round"/>
  <path d="M41,88 L37,96 M41,88 L41,97 M41,88 L45,96" stroke="#8a4a1e" stroke-width="1.3" fill="none" stroke-linecap="round" opacity="0.5"/>
  <path d="M59,88 L55,96 M59,88 L59,97 M59,88 L63,96" stroke="#8a4a1e" stroke-width="1.3" fill="none" stroke-linecap="round" opacity="0.5"/>
</svg>
